<svg id="Capa_1" enable-background="new 0 0 512 512" height="512" viewBox="0 0 512 512" width="512" xmlns="http://www.w3.org/2000/svg"><g><g><path d="m512 256c0-2.509-.046-5.008-.118-7.5l-13.946-7.5 13.068-7.5c-.439-5.043-1.019-10.045-1.746-15l-11.322-7.5 8.665-7.5c-8.754-41.999-27.802-80.214-54.382-111.904l-14.538 3.936 4.557-15.16c-3.433-3.639-6.971-7.177-10.61-10.61l-15.16 4.557 3.936-14.538c-31.69-26.58-69.905-45.628-111.904-54.382l-7.5 8.665-7.5-11.322c-4.955-.727-9.957-1.307-15-1.746l-7.5 13.068-7.5-13.946c-2.492-.072-4.991-.118-7.5-.118s-5.008.046-7.5.118l-7.5 13.946-7.5-13.068c-5.043.439-10.045 1.019-15 1.746l-7.5 11.322-7.5-8.665c-41.999 8.754-80.214 27.802-111.904 54.382l3.936 14.538-15.16-4.557c-3.639 3.433-7.177 6.971-10.61 10.61l4.557 15.16-14.538-3.936c-26.58 31.69-45.628 69.905-54.382 111.904l8.665 7.5-11.322 7.5c-.727 4.955-1.307 9.957-1.746 15l13.068 7.5-13.946 7.5c-.072 2.492-.118 4.991-.118 7.5s.046 5.008.118 7.5l13.946 7.5-13.068 7.5c.439 5.043 1.019 10.045 1.746 15l11.322 7.5-8.665 7.5c8.754 41.999 27.802 80.214 54.382 111.904l14.538-3.936-4.557 15.16c3.433 3.639 6.971 7.177 10.61 10.61l15.16-4.557-3.936 14.538c31.69 26.58 69.905 45.628 111.904 54.382l7.5-8.666 7.5 11.322c4.955.727 9.957 1.307 15 1.746l7.5-13.069 7.5 13.946c2.492.072 4.991.118 7.5.118s5.008-.046 7.5-.118l7.5-13.946 7.5 13.069c5.043-.439 10.045-1.019 15-1.746l7.5-11.322 7.5 8.666c41.999-8.754 80.214-27.802 111.904-54.382l-3.936-14.538 15.16 4.557c3.639-3.433 7.177-6.971 10.61-10.61l-4.557-15.16 14.538 3.936c26.58-31.69 45.628-69.905 54.382-111.904l-8.665-7.5 11.322-7.5c.727-4.955 1.307-9.957 1.746-15l-13.068-7.5 13.946-7.5c.072-2.492.118-4.991.118-7.5z" fill="#1c2e7a"/></g><g><g><path d="m511.005 278.5c.432-4.962.733-9.961.878-15h-203.383v-28.18l16.82-16.82h183.938c-.741-5.049-1.625-10.051-2.657-15h-166.281l111.901-111.902c-3.22-3.84-6.548-7.585-9.985-11.228l-123.129 123.13h-10.607v-136.747c4.479-2.595 7.5-7.428 7.5-12.977s-3.021-10.382-7.5-12.977v-35.401c-4.949-1.031-9.951-1.916-15-2.657v38.059c-4.479 2.595-7.5 7.428-7.5 12.977s3.021 10.382 7.5 12.977v136.746h-45v-124.172c4.479-2.595 7.5-7.428 7.5-12.977s-3.021-10.382-7.5-12.977v-53.256c-5.039.145-10.038.446-15 .878v52.379c-4.479 2.595-7.5 7.428-7.5 12.977s3.021 10.382 7.5 12.977v124.171h-40.607l-82.932-82.932c1.333-5.002.051-10.556-3.873-14.479-3.924-3.924-9.477-5.205-14.479-3.873l-21.845-21.846c-3.437 3.643-6.765 7.389-9.985 11.228l21.224 21.224c-1.333 5.002-.051 10.556 3.873 14.479s9.477 5.205 14.479 3.873l72.325 72.326h-101.448c-2.595-4.479-7.428-7.5-12.977-7.5s-10.382 3.021-12.977 7.5h-38.88c-1.031 4.949-1.916 9.951-2.657 15h41.537c2.595 4.479 7.428 7.5 12.977 7.5s10.382-3.021 12.977-7.5h116.448l45 45h-133.873c-2.595-4.479-7.428-7.5-12.977-7.5s-10.382 3.021-12.977 7.5h-71.735c.145 5.039.446 10.038.878 15h70.857c2.595 4.479 7.428 7.5 12.977 7.5s10.382-3.021 12.977-7.5h135.693v10.607l-95.899 95.899c-5.002-1.333-10.556-.051-14.479 3.873-3.924 3.924-5.205 9.477-3.873 14.479l-38.879 38.879c3.643 3.437 7.389 6.764 11.228 9.985l38.257-38.257c5.002 1.333 10.556.051 14.479-3.873 3.924-3.924 5.205-9.477 3.873-14.479l85.293-85.293v200.685c4.962.432 9.961.733 15 .878v-216.563l7.5-7.5 37.5 37.5v183.938c5.049-.741 10.051-1.625 15-2.657v-166.281l111.902 111.902c3.84-3.22 7.585-6.548 11.228-9.985l-123.13-123.131v-40.606zm-217.505-15h-13.18l13.18-13.18zm0-45v10.607l-34.393 34.393h-6.213l-4.393-4.394v-40.606zm-60 0v25.606l-25.607-25.606zm60 85.606-25.607-25.606h25.607z" fill="#2a428c"/></g></g><g><g><path d="m459.681 286c-5.549 0-10.382 3.021-12.977 7.5h-121.384l-45-45h136.384c2.595 4.479 7.428 7.5 12.977 7.5s10.382-3.021 12.977-7.5h69.225c-.145-5.039-.446-10.038-.878-15h-68.347c-2.595-4.479-7.428-7.5-12.977-7.5s-10.382 3.021-12.977 7.5h-138.204v-10.607l115.017-115.017c5.002 1.333 10.556.051 14.479-3.873 3.924-3.924 5.205-9.478 3.873-14.479l19.761-19.761c-3.643-3.437-7.389-6.764-11.228-9.985l-19.139 19.139c-5.002-1.333-10.556-.051-14.479 3.873s-5.205 9.477-3.873 14.479l-104.411 104.411v-200.685c-4.962-.432-9.961-.733-15-.878v216.563l-7.5 7.5-37.5-37.5v-183.938c-5.049.741-10.051 1.625-15 2.657v166.281l-111.902-111.901c-3.84 3.22-7.585 6.548-11.228 9.985l123.13 123.13v40.606h-202.505c-.432 4.962-.733 9.961-.878 15h203.383v28.18l-16.82 16.82h-183.938c.741 5.049 1.625 10.051 2.657 15h166.281l-111.901 111.902c3.22 3.84 6.548 7.585 9.985 11.228l123.13-123.13h10.606v108.008c-4.479 2.595-7.5 7.428-7.5 12.977s3.021 10.382 7.5 12.977v64.14c4.949 1.031 9.951 1.916 15 2.657v-66.796c4.479-2.595 7.5-7.428 7.5-12.977s-3.021-10.382-7.5-12.977v-108.009h45v148.425c-4.479 2.595-7.5 7.428-7.5 12.977s3.021 10.382 7.5 12.977v29.003c5.039-.145 10.038-.446 15-.878v-28.125c4.479-2.595 7.5-7.428 7.5-12.977s-3.021-10.382-7.5-12.977v-148.425h40.607l77.085 77.085c-1.333 5.002-.051 10.556 3.873 14.479s9.477 5.205 14.479 3.873l27.692 27.692c3.437-3.643 6.765-7.389 9.985-11.228l-27.071-27.071c1.333-5.002.051-10.556-3.873-14.479-3.924-3.924-9.477-5.205-14.479-3.873l-66.478-66.478h106.384c2.595 4.479 7.428 7.5 12.977 7.5s10.382-3.021 12.977-7.5h33.944c1.031-4.949 1.916-9.951 2.657-15h-36.601c-2.595-4.479-7.428-7.5-12.977-7.5zm-241.181-78.107 25.607 25.607h-25.607zm0 40.607h13.18l-13.18 13.18zm0 45v-10.607l34.393-34.393h6.213l4.393 4.393v40.607zm60 0v-25.607l25.607 25.607z" fill="#4b6bb2"/></g></g><g><path d="m403.337 139.638c.113-7.105-5.456-13.023-12.557-13.297-74.72-2.876-118.916-30.341-134.78-30.341s-60.06 27.465-134.779 30.341c-7.101.273-12.671 6.191-12.557 13.297.564 35.348 3.98 133.03 24.359 174.31 25.11 50.865 102.373 102.052 122.977 102.052s97.867-51.187 122.978-102.052c20.379-41.281 23.795-138.963 24.359-174.31z" fill="#fff"/></g><g><path d="m256 400.997c-5.075-.328-25.218-9.24-51.461-29.459-27.032-20.826-48.196-44.238-58.066-64.23-18.919-38.323-22.212-134.456-22.779-166.057 51.565-2.277 89.671-15.918 112.548-24.107 7.566-2.708 16.981-6.079 19.774-6.144 2.763.064 12.178 3.436 19.744 6.144 22.876 8.189 60.982 21.83 112.548 24.107-.567 31.602-3.86 127.733-22.779 166.057-9.87 19.992-31.035 43.404-58.066 64.23-26.245 20.219-46.388 29.131-51.463 29.459z" fill="#e9efff"/></g><g><g><path d="m215.235 313.948c-22.304-45.18-24.289-157.909-24.454-182.548-18.843 4.725-41.28 8.711-67.088 9.851.567 31.601 3.86 127.733 22.779 166.057 9.87 19.992 31.035 43.404 58.066 64.23 26.243 20.219 46.387 29.131 51.461 29.459 3.393-.219 13.526-4.282 27.708-12.988-26.64-19.512-55.029-46.831-68.472-74.061z" fill="#d3dcfb"/></g></g><g><g><path d="m256 151.642c-24.853 0-45 20.147-45 45v37.5h22.5v-37.5c0-12.426 10.074-22.5 22.5-22.5s22.5 10.074 22.5 22.5v37.5h22.5v-37.5c0-24.853-20.147-45-45-45z" fill="#fff"/></g><g><path d="m244.75 162.892c0-6.213 5.037-11.25 11.25-11.25-24.853 0-45 20.147-45 45v37.5h22.5v-37.5c0-12.426 10.074-22.5 22.5-22.5-6.213 0-11.25-5.037-11.25-11.25z" fill="#bec8f7"/></g><g><path d="m301 329.767h-90c-12.426 0-22.5-10.074-22.5-22.5v-67.5c0-12.426 10.074-22.5 22.5-22.5h90c12.426 0 22.5 10.074 22.5 22.5v67.5c0 12.426-10.074 22.5-22.5 22.5z" fill="#ffdd40"/></g><g><path d="m211 307.267v-67.5c0-12.426 10.074-22.5 22.5-22.5h-22.5c-12.426 0-22.5 10.074-22.5 22.5v67.5c0 12.426 10.074 22.5 22.5 22.5h22.5c-12.426 0-22.5-10.074-22.5-22.5z" fill="#ffb332"/></g><g><path d="m271 258.517c0-8.284-6.716-15-15-15s-15 6.716-15 15c0 5.549 3.021 10.382 7.5 12.977v24.523c0 4.142 3.358 7.5 7.5 7.5s7.5-3.358 7.5-7.5v-24.523c4.479-2.595 7.5-7.428 7.5-12.977z" fill="#ffb332"/></g><g><path d="m221 258.517h-32.5v-15h32.5c4.142 0 7.5 3.358 7.5 7.5 0 4.142-3.358 7.5-7.5 7.5z" fill="#ffb332"/></g><g><path d="m221 303.517h-32.5v-15h32.5c4.142 0 7.5 3.358 7.5 7.5 0 4.142-3.358 7.5-7.5 7.5z" fill="#ffb332"/></g><g><path d="m221 281.017h-32.5v-15h32.5c4.142 0 7.5 3.358 7.5 7.5 0 4.142-3.358 7.5-7.5 7.5z" fill="#ffb332"/></g><g><path d="m291 258.517h32.5v-15h-32.5c-4.142 0-7.5 3.358-7.5 7.5 0 4.142 3.358 7.5 7.5 7.5z" fill="#ffb332"/></g><g><path d="m291 303.517h32.5v-15h-32.5c-4.142 0-7.5 3.358-7.5 7.5 0 4.142 3.358 7.5 7.5 7.5z" fill="#ffb332"/></g><g><path d="m291 281.017h32.5v-15h-32.5c-4.142 0-7.5 3.358-7.5 7.5 0 4.142 3.358 7.5 7.5 7.5z" fill="#ffb332"/></g></g></g></svg>